<mxfile host="app.diagrams.net" agent="Mozilla/5.0 (Windows NT 10.0; Win64; x64) AppleWebKit/537.36 (KHTML, like Gecko) Chrome/133.0.0.0 Safari/537.36" version="26.0.13">
  <diagram name="第 1 页" id="LHeUYlA5HnH-P8TUve1t">
    <mxGraphModel dx="658" dy="430" grid="1" gridSize="10" guides="1" tooltips="1" connect="1" arrows="1" fold="1" page="1" pageScale="1" pageWidth="827" pageHeight="1169" math="1" shadow="0">
      <root>
        <mxCell id="0" />
        <mxCell id="1" parent="0" />
        <mxCell id="MSncDrkIAbCbCqFgECyr-38" value="" style="rounded=1;whiteSpace=wrap;html=1;arcSize=7;fillColor=#f5f5f5;fontColor=#333333;strokeColor=#666666;dashed=1;fontSize=15;" parent="1" vertex="1">
          <mxGeometry x="98" y="124" width="400" height="246" as="geometry" />
        </mxCell>
        <mxCell id="MSncDrkIAbCbCqFgECyr-1" value="$$h_{t-1}$$" style="ellipse;whiteSpace=wrap;html=1;fontSize=15;fillColor=none;strokeColor=none;" parent="1" vertex="1">
          <mxGeometry x="40" y="340" width="39" height="30" as="geometry" />
        </mxCell>
        <mxCell id="MSncDrkIAbCbCqFgECyr-2" value="$$x_{t}$$" style="ellipse;whiteSpace=wrap;html=1;aspect=fixed;fontSize=15;" parent="1" vertex="1">
          <mxGeometry x="120" y="390" width="30" height="30" as="geometry" />
        </mxCell>
        <mxCell id="MSncDrkIAbCbCqFgECyr-3" value="$$\sigma$$" style="rounded=0;whiteSpace=wrap;html=1;fontSize=15;" parent="1" vertex="1">
          <mxGeometry x="110" y="308" width="50" height="30" as="geometry" />
        </mxCell>
        <mxCell id="MSncDrkIAbCbCqFgECyr-4" value="$$\sigma$$" style="rounded=0;whiteSpace=wrap;html=1;fontSize=15;" parent="1" vertex="1">
          <mxGeometry x="180" y="308" width="50" height="30" as="geometry" />
        </mxCell>
        <mxCell id="MSncDrkIAbCbCqFgECyr-5" value="$$\tanh$$" style="rounded=0;whiteSpace=wrap;html=1;fontSize=15;fontFamily=Times New Roman;" parent="1" vertex="1">
          <mxGeometry x="250" y="308" width="50" height="30" as="geometry" />
        </mxCell>
        <mxCell id="MSncDrkIAbCbCqFgECyr-6" value="$$\sigma$$" style="rounded=0;whiteSpace=wrap;html=1;fontSize=15;" parent="1" vertex="1">
          <mxGeometry x="320" y="308" width="50" height="30" as="geometry" />
        </mxCell>
        <mxCell id="MSncDrkIAbCbCqFgECyr-7" value="$$c_{t-1}$$" style="ellipse;whiteSpace=wrap;html=1;fontSize=15;strokeColor=none;fillColor=none;" parent="1" vertex="1">
          <mxGeometry x="40" y="130" width="39" height="30" as="geometry" />
        </mxCell>
        <mxCell id="MSncDrkIAbCbCqFgECyr-12" value="$$\tanh$$" style="rounded=0;whiteSpace=wrap;html=1;fontSize=15;fontFamily=Times New Roman;" parent="1" vertex="1">
          <mxGeometry x="390" y="190" width="50" height="30" as="geometry" />
        </mxCell>
        <mxCell id="MSncDrkIAbCbCqFgECyr-13" value="" style="endArrow=block;html=1;rounded=0;exitX=1;exitY=0.5;exitDx=0;exitDy=0;entryX=0.5;entryY=1;entryDx=0;entryDy=0;endFill=1;fontSize=15;" parent="1" source="MSncDrkIAbCbCqFgECyr-1" target="MSncDrkIAbCbCqFgECyr-6" edge="1">
          <mxGeometry width="50" height="50" relative="1" as="geometry">
            <mxPoint x="380" y="430" as="sourcePoint" />
            <mxPoint x="430" y="380" as="targetPoint" />
            <Array as="points">
              <mxPoint x="345" y="355" />
            </Array>
          </mxGeometry>
        </mxCell>
        <mxCell id="MSncDrkIAbCbCqFgECyr-14" value="" style="endArrow=block;html=1;rounded=0;exitX=1;exitY=0.5;exitDx=0;exitDy=0;entryX=0.5;entryY=1;entryDx=0;entryDy=0;endFill=1;fontSize=15;" parent="1" source="MSncDrkIAbCbCqFgECyr-1" target="MSncDrkIAbCbCqFgECyr-5" edge="1">
          <mxGeometry width="50" height="50" relative="1" as="geometry">
            <mxPoint x="90" y="365" as="sourcePoint" />
            <mxPoint x="485" y="340" as="targetPoint" />
            <Array as="points">
              <mxPoint x="275" y="355" />
            </Array>
          </mxGeometry>
        </mxCell>
        <mxCell id="MSncDrkIAbCbCqFgECyr-15" value="" style="endArrow=block;html=1;rounded=0;exitX=1;exitY=0.5;exitDx=0;exitDy=0;entryX=0.5;entryY=1;entryDx=0;entryDy=0;endFill=1;fontSize=15;" parent="1" source="MSncDrkIAbCbCqFgECyr-1" target="MSncDrkIAbCbCqFgECyr-4" edge="1">
          <mxGeometry width="50" height="50" relative="1" as="geometry">
            <mxPoint x="90" y="365" as="sourcePoint" />
            <mxPoint x="385" y="340" as="targetPoint" />
            <Array as="points">
              <mxPoint x="205" y="355" />
            </Array>
          </mxGeometry>
        </mxCell>
        <mxCell id="MSncDrkIAbCbCqFgECyr-16" value="" style="endArrow=block;html=1;rounded=0;exitX=1;exitY=0.5;exitDx=0;exitDy=0;entryX=0.5;entryY=1;entryDx=0;entryDy=0;endFill=1;fontSize=15;" parent="1" source="MSncDrkIAbCbCqFgECyr-1" target="MSncDrkIAbCbCqFgECyr-3" edge="1">
          <mxGeometry width="50" height="50" relative="1" as="geometry">
            <mxPoint x="90" y="365" as="sourcePoint" />
            <mxPoint x="275" y="340" as="targetPoint" />
            <Array as="points">
              <mxPoint x="135" y="355" />
            </Array>
          </mxGeometry>
        </mxCell>
        <mxCell id="MSncDrkIAbCbCqFgECyr-17" value="" style="endArrow=block;html=1;rounded=0;exitX=0.5;exitY=0;exitDx=0;exitDy=0;entryX=0.5;entryY=1;entryDx=0;entryDy=0;endFill=1;fontSize=15;" parent="1" source="MSncDrkIAbCbCqFgECyr-2" target="MSncDrkIAbCbCqFgECyr-3" edge="1">
          <mxGeometry width="50" height="50" relative="1" as="geometry">
            <mxPoint x="155" y="460" as="sourcePoint" />
            <mxPoint x="205" y="410" as="targetPoint" />
          </mxGeometry>
        </mxCell>
        <mxCell id="MSncDrkIAbCbCqFgECyr-18" value="" style="endArrow=block;html=1;rounded=0;exitX=0.5;exitY=0;exitDx=0;exitDy=0;entryX=0.5;entryY=1;entryDx=0;entryDy=0;endFill=1;fontSize=15;" parent="1" source="MSncDrkIAbCbCqFgECyr-3" target="MSncDrkIAbCbCqFgECyr-30" edge="1">
          <mxGeometry width="50" height="50" relative="1" as="geometry">
            <mxPoint x="145" y="230" as="sourcePoint" />
            <mxPoint x="130" y="160" as="targetPoint" />
          </mxGeometry>
        </mxCell>
        <mxCell id="MSncDrkIAbCbCqFgECyr-19" value="" style="endArrow=block;html=1;rounded=0;exitX=0.5;exitY=0;exitDx=0;exitDy=0;entryX=0;entryY=0.5;entryDx=0;entryDy=0;endFill=1;fontSize=15;" parent="1" source="MSncDrkIAbCbCqFgECyr-4" target="MSncDrkIAbCbCqFgECyr-31" edge="1">
          <mxGeometry width="50" height="50" relative="1" as="geometry">
            <mxPoint x="175" y="310" as="sourcePoint" />
            <mxPoint x="360" y="215" as="targetPoint" />
            <Array as="points">
              <mxPoint x="205" y="205" />
            </Array>
          </mxGeometry>
        </mxCell>
        <mxCell id="MSncDrkIAbCbCqFgECyr-20" value="" style="endArrow=block;html=1;rounded=0;exitX=1;exitY=0.5;exitDx=0;exitDy=0;entryX=0;entryY=0.5;entryDx=0;entryDy=0;endFill=1;fontSize=15;" parent="1" source="MSncDrkIAbCbCqFgECyr-7" target="MSncDrkIAbCbCqFgECyr-30" edge="1">
          <mxGeometry width="50" height="50" relative="1" as="geometry">
            <mxPoint x="175" y="310" as="sourcePoint" />
            <mxPoint x="149.99999999999886" y="145" as="targetPoint" />
          </mxGeometry>
        </mxCell>
        <mxCell id="MSncDrkIAbCbCqFgECyr-21" value="" style="endArrow=block;html=1;rounded=0;exitX=1;exitY=0.5;exitDx=0;exitDy=0;entryX=0;entryY=0.5;entryDx=0;entryDy=0;endFill=1;fontSize=15;" parent="1" source="MSncDrkIAbCbCqFgECyr-30" target="MSncDrkIAbCbCqFgECyr-29" edge="1">
          <mxGeometry width="50" height="50" relative="1" as="geometry">
            <mxPoint x="180.00000000000114" y="145" as="sourcePoint" />
            <mxPoint x="360" y="145" as="targetPoint" />
          </mxGeometry>
        </mxCell>
        <mxCell id="MSncDrkIAbCbCqFgECyr-22" value="" style="endArrow=block;html=1;rounded=0;exitX=1;exitY=0.5;exitDx=0;exitDy=0;endFill=1;entryX=0;entryY=0.5;entryDx=0;entryDy=0;fontSize=15;" parent="1" target="MSncDrkIAbCbCqFgECyr-36" edge="1">
          <mxGeometry width="50" height="50" relative="1" as="geometry">
            <mxPoint x="390" y="145" as="sourcePoint" />
            <mxPoint x="660" y="145" as="targetPoint" />
          </mxGeometry>
        </mxCell>
        <mxCell id="MSncDrkIAbCbCqFgECyr-23" value="" style="endArrow=block;html=1;rounded=0;exitX=1;exitY=0.5;exitDx=0;exitDy=0;endFill=1;entryX=0.5;entryY=0;entryDx=0;entryDy=0;fontSize=15;" parent="1" source="MSncDrkIAbCbCqFgECyr-29" target="MSncDrkIAbCbCqFgECyr-12" edge="1">
          <mxGeometry width="50" height="50" relative="1" as="geometry">
            <mxPoint x="390" y="145" as="sourcePoint" />
            <mxPoint x="670" y="155" as="targetPoint" />
            <Array as="points">
              <mxPoint x="415" y="145" />
            </Array>
          </mxGeometry>
        </mxCell>
        <mxCell id="MSncDrkIAbCbCqFgECyr-24" value="" style="endArrow=block;html=1;rounded=0;exitX=0.5;exitY=1;exitDx=0;exitDy=0;entryX=0.5;entryY=0;entryDx=0;entryDy=0;endFill=1;fontSize=15;" parent="1" source="MSncDrkIAbCbCqFgECyr-12" target="MSncDrkIAbCbCqFgECyr-32" edge="1">
          <mxGeometry width="50" height="50" relative="1" as="geometry">
            <mxPoint x="185" y="310" as="sourcePoint" />
            <mxPoint x="455" y="250" as="targetPoint" />
            <Array as="points" />
          </mxGeometry>
        </mxCell>
        <mxCell id="MSncDrkIAbCbCqFgECyr-25" value="" style="endArrow=block;html=1;rounded=0;exitX=0.5;exitY=0;exitDx=0;exitDy=0;entryX=0;entryY=0.5;entryDx=0;entryDy=0;endFill=1;fontSize=15;" parent="1" source="MSncDrkIAbCbCqFgECyr-6" target="MSncDrkIAbCbCqFgECyr-32" edge="1">
          <mxGeometry width="50" height="50" relative="1" as="geometry">
            <mxPoint x="410" y="270" as="sourcePoint" />
            <mxPoint x="530" y="265" as="targetPoint" />
            <Array as="points">
              <mxPoint x="345" y="265" />
            </Array>
          </mxGeometry>
        </mxCell>
        <mxCell id="MSncDrkIAbCbCqFgECyr-26" value="" style="endArrow=block;html=1;rounded=0;exitX=0.5;exitY=1;exitDx=0;exitDy=0;endFill=1;entryX=0;entryY=0.5;entryDx=0;entryDy=0;fontSize=15;" parent="1" source="MSncDrkIAbCbCqFgECyr-32" target="MSncDrkIAbCbCqFgECyr-35" edge="1">
          <mxGeometry width="50" height="50" relative="1" as="geometry">
            <mxPoint x="545" y="280" as="sourcePoint" />
            <mxPoint x="650" y="350" as="targetPoint" />
            <Array as="points">
              <mxPoint x="415" y="355" />
            </Array>
          </mxGeometry>
        </mxCell>
        <mxCell id="MSncDrkIAbCbCqFgECyr-27" value="" style="endArrow=block;html=1;rounded=0;exitX=0.5;exitY=0;exitDx=0;exitDy=0;entryX=0.5;entryY=1;entryDx=0;entryDy=0;endFill=1;fontSize=15;" parent="1" source="MSncDrkIAbCbCqFgECyr-5" target="MSncDrkIAbCbCqFgECyr-31" edge="1">
          <mxGeometry width="50" height="50" relative="1" as="geometry">
            <mxPoint x="400" y="270" as="sourcePoint" />
            <mxPoint x="375" y="230" as="targetPoint" />
          </mxGeometry>
        </mxCell>
        <mxCell id="MSncDrkIAbCbCqFgECyr-29" value="$$+$$" style="ellipse;whiteSpace=wrap;html=1;aspect=fixed;fontSize=15;" parent="1" vertex="1">
          <mxGeometry x="260" y="130" width="30" height="30" as="geometry" />
        </mxCell>
        <mxCell id="MSncDrkIAbCbCqFgECyr-30" value="$$\times$$" style="ellipse;whiteSpace=wrap;html=1;aspect=fixed;fontSize=15;" parent="1" vertex="1">
          <mxGeometry x="120" y="130" width="30" height="30" as="geometry" />
        </mxCell>
        <mxCell id="MSncDrkIAbCbCqFgECyr-37" value="" style="edgeStyle=orthogonalEdgeStyle;rounded=0;orthogonalLoop=1;jettySize=auto;html=1;exitX=0.5;exitY=0;exitDx=0;exitDy=0;endArrow=block;endFill=1;fontSize=15;" parent="1" source="MSncDrkIAbCbCqFgECyr-31" target="MSncDrkIAbCbCqFgECyr-29" edge="1">
          <mxGeometry relative="1" as="geometry" />
        </mxCell>
        <mxCell id="MSncDrkIAbCbCqFgECyr-31" value="$$\times$$" style="ellipse;whiteSpace=wrap;html=1;aspect=fixed;fontSize=15;" parent="1" vertex="1">
          <mxGeometry x="260" y="190" width="30" height="30" as="geometry" />
        </mxCell>
        <mxCell id="MSncDrkIAbCbCqFgECyr-32" value="$$\times$$" style="ellipse;whiteSpace=wrap;html=1;aspect=fixed;fontSize=15;" parent="1" vertex="1">
          <mxGeometry x="400" y="250" width="30" height="30" as="geometry" />
        </mxCell>
        <mxCell id="MSncDrkIAbCbCqFgECyr-33" value="" style="endArrow=block;html=1;rounded=0;endFill=1;entryX=0.5;entryY=1;entryDx=0;entryDy=0;fontSize=15;jumpStyle=arc;" parent="1" target="MSncDrkIAbCbCqFgECyr-34" edge="1">
          <mxGeometry width="50" height="50" relative="1" as="geometry">
            <mxPoint x="475" y="355" as="sourcePoint" />
            <mxPoint x="525" y="120" as="targetPoint" />
          </mxGeometry>
        </mxCell>
        <mxCell id="MSncDrkIAbCbCqFgECyr-34" value="$$h_{t}$$" style="ellipse;whiteSpace=wrap;html=1;aspect=fixed;fontSize=15;" parent="1" vertex="1">
          <mxGeometry x="460" y="75" width="30" height="30" as="geometry" />
        </mxCell>
        <mxCell id="MSncDrkIAbCbCqFgECyr-35" value="$$h_{t}$$" style="ellipse;whiteSpace=wrap;html=1;aspect=fixed;fontSize=15;fillColor=none;strokeColor=none;" parent="1" vertex="1">
          <mxGeometry x="520" y="340" width="30" height="30" as="geometry" />
        </mxCell>
        <mxCell id="MSncDrkIAbCbCqFgECyr-36" value="$$c_{t}$$" style="ellipse;whiteSpace=wrap;html=1;aspect=fixed;fontSize=15;strokeColor=none;fillColor=none;" parent="1" vertex="1">
          <mxGeometry x="520" y="130" width="30" height="30" as="geometry" />
        </mxCell>
        <mxCell id="MSncDrkIAbCbCqFgECyr-39" value="$$f_t$$" style="text;html=1;align=center;verticalAlign=middle;whiteSpace=wrap;rounded=0;fontSize=15;" parent="1" vertex="1">
          <mxGeometry x="114" y="218" width="20" height="30" as="geometry" />
        </mxCell>
        <mxCell id="MSncDrkIAbCbCqFgECyr-41" value="$$i_t$$" style="text;html=1;align=center;verticalAlign=middle;whiteSpace=wrap;rounded=0;fontSize=15;" parent="1" vertex="1">
          <mxGeometry x="184" y="237" width="20" height="30" as="geometry" />
        </mxCell>
        <mxCell id="MSncDrkIAbCbCqFgECyr-42" value="$$\tilde{c}_t$$" style="text;html=1;align=center;verticalAlign=middle;whiteSpace=wrap;rounded=0;fontSize=15;" parent="1" vertex="1">
          <mxGeometry x="255" y="247" width="20" height="30" as="geometry" />
        </mxCell>
        <mxCell id="MSncDrkIAbCbCqFgECyr-43" value="$$o_t$$" style="text;html=1;align=center;verticalAlign=middle;whiteSpace=wrap;rounded=0;fontSize=15;" parent="1" vertex="1">
          <mxGeometry x="325" y="267" width="20" height="30" as="geometry" />
        </mxCell>
      </root>
    </mxGraphModel>
  </diagram>
</mxfile>
